<svg xmlns="http://www.w3.org/2000/svg" xmlns:xlink="http://www.w3.org/1999/xlink" width="500" zoomAndPan="magnify" viewBox="0 0 375 374.999991" height="500" preserveAspectRatio="xMidYMid meet" version="1.0"><defs><g/><clipPath id="c9eb5ebce7"><path d="M 17.25 0 L 357.75 0 C 362.324219 0 366.710938 1.816406 369.949219 5.050781 C 373.183594 8.289062 375 12.675781 375 17.25 L 375 357.75 C 375 362.324219 373.183594 366.710938 369.949219 369.949219 C 366.710938 373.183594 362.324219 375 357.75 375 L 17.25 375 C 12.675781 375 8.289062 373.183594 5.050781 369.949219 C 1.816406 366.710938 0 362.324219 0 357.75 L 0 17.25 C 0 12.675781 1.816406 8.289062 5.050781 5.050781 C 8.289062 1.816406 12.675781 0 17.25 0 Z M 17.25 0 " clip-rule="nonzero"/></clipPath><clipPath id="ec579fa0ec"><path d="M 0 0 L 375 0 L 375 375 L 0 375 Z M 0 0 " clip-rule="nonzero"/></clipPath><clipPath id="837a1336b7"><path d="M 17.25 0 L 357.75 0 C 362.324219 0 366.710938 1.816406 369.949219 5.050781 C 373.183594 8.289062 375 12.675781 375 17.25 L 375 357.75 C 375 362.324219 373.183594 366.710938 369.949219 369.949219 C 366.710938 373.183594 362.324219 375 357.75 375 L 17.25 375 C 12.675781 375 8.289062 373.183594 5.050781 369.949219 C 1.816406 366.710938 0 362.324219 0 357.75 L 0 17.25 C 0 12.675781 1.816406 8.289062 5.050781 5.050781 C 8.289062 1.816406 12.675781 0 17.25 0 Z M 17.25 0 " clip-rule="nonzero"/></clipPath><clipPath id="c244f18bdf"><rect x="0" width="375" y="0" height="375"/></clipPath><clipPath id="6f6661b775"><rect x="0" width="283" y="0" height="275"/></clipPath></defs><g clip-path="url(#c9eb5ebce7)"><g transform="matrix(1, 0, 0, 1, 0, 0)"><g clip-path="url(#c244f18bdf)"><g clip-path="url(#ec579fa0ec)"><g clip-path="url(#837a1336b7)"><rect x="-82.5" width="540" fill="#1a0136" height="539.999987" y="-82.499998" fill-opacity="1"/></g></g></g></g></g><g transform="matrix(1, 0, 0, 1, 48, 48)"><g clip-path="url(#6f6661b775)"><g fill="#c4a43d" fill-opacity="1"><g transform="translate(0.357485, 200.359962)"><g><path d="M 38.484375 -75.046875 L 38.484375 -23.890625 L 124.40625 -23.890625 L 124.40625 0 L 14.71875 0 L 14.71875 -158.46875 L 124.40625 -158.46875 L 124.40625 -134.703125 L 38.484375 -134.703125 L 38.484375 -98.828125 L 106.171875 -98.828125 L 106.171875 -75.046875 Z M 38.484375 -75.046875 "/></g></g></g><g fill="#c4a43d" fill-opacity="1"><g transform="translate(139.475108, 200.359962)"><g><path d="M 7.46875 0 L 23.65625 -158.46875 L 48.109375 -158.46875 L 69.734375 -84 L 91.125 -158.46875 L 115.578125 -158.46875 L 131.765625 0 C 131.765625 0 123.800781 0 107.875 0 L 98.03125 -96.4375 L 77.765625 -26.265625 L 61.6875 -26.265625 L 41.3125 -96.671875 L 31.359375 0 Z M 7.46875 0 "/></g></g></g></g></g></svg>